<?xml version="1.0" encoding="iso-8859-1"?>
<!-- Generator: Adobe Illustrator 25.2.3, SVG Export Plug-In . SVG Version: 6.00 Build 0)  -->
<svg version="1.1" baseProfile="basic" id="Layer_1"
	 xmlns="http://www.w3.org/2000/svg" xmlns:xlink="http://www.w3.org/1999/xlink" x="0px" y="0px" viewBox="0 0 50 50"
	 xml:space="preserve">
<path d="M12.93,12H9.68l9.59-9.59C20.8,0.88,22.84,0.04,25,0.04s4.2,0.84,5.73,2.37L40.32,12h-3.25c-1.6,0-3.11,0.62-4.24,1.76
	l-6.77,6.76c-0.58,0.59-1.54,0.59-2.12,0.01l-6.77-6.77C16.04,12.62,14.53,12,12.93,12z"/>
<path d="M37.07,38h3.25l-9.59,9.59c-1.53,1.53-3.57,2.37-5.73,2.37s-4.2-0.84-5.73-2.37L9.68,38h3.25c1.6,0,3.11-0.62,4.24-1.76
	l6.77-6.76c0.58-0.59,1.54-0.59,2.12-0.01l6.77,6.77C33.96,37.38,35.47,38,37.07,38z"/>
<path d="M47.59,30.73L42.32,36h-5.25C36,36,35,35.58,34.24,34.83l-6.77-6.77c-1.36-1.36-3.58-1.36-4.94,0l-6.77,6.77
	C15,35.58,14,36,12.93,36H7.68l-5.27-5.27c-3.16-3.16-3.16-8.3,0-11.46L7.68,14h5.25c1.07,0,2.07,0.42,2.83,1.17l6.77,6.77
	c0.68,0.68,1.57,1.02,2.47,1.02s1.79-0.34,2.47-1.02l6.77-6.77C35,14.42,36,14,37.07,14h5.25l5.27,5.27
	C50.75,22.43,50.75,27.57,47.59,30.73z"/>
</svg>