<?xml version="1.0" encoding="UTF-8"?>
<svg xmlns="http://www.w3.org/2000/svg" viewBox="0 0 794.39 297.55">
  <defs>
    <style>
      .cls-1 {
        stroke-width: .75px;
      }

      .cls-1, .cls-2, .cls-3, .cls-4 {
        fill: none;
        stroke: #000;
      }

      .cls-1, .cls-4 {
        stroke-miterlimit: 10;
      }

      .cls-2, .cls-3 {
        stroke-linecap: round;
        stroke-linejoin: round;
      }

      .cls-2, .cls-4 {
        stroke-width: 3px;
      }

      .cls-3 {
        stroke-width: 6px;
      }
    </style>
  </defs>
  <g id="Linhas">
    <line class="cls-1" x1="6.65" y1="194.42" x2="57.72" y2="185.13"/>
    <polyline class="cls-1" points="102.79 159.44 91.52 185.42 96.91 225.07 56.16 261.81 118.46 255.93 125.22 217.74 91.52 185.42"/>
    <polyline class="cls-1" points="118.46 255.93 96.91 225.07 125.22 217.74"/>
    <polyline class="cls-1" points="135.64 201.48 150.79 245.4 152.75 216.01"/>
    <polygon class="cls-1" points="191.19 206.21 153.97 245.4 153.97 247.11 193.89 272.34 194.87 240.74 208.37 216.81 198.3 214.54 191.19 206.21"/>
    <line class="cls-1" x1="152.75" y1="246.87" x2="192.91" y2="240.74"/>
    <line class="cls-1" x1="172.83" y1="202.78" x2="190.8" y2="200.82"/>
    <line class="cls-1" x1="216.91" y1="215.52" x2="238.95" y2="231.19"/>
    <line class="cls-1" x1="252.17" y1="215.52" x2="263.44" y2="236.84"/>
    <polyline class="cls-1" points="220.58 166.78 227.93 185.4 220.58 189.32"/>
    <line class="cls-1" x1="256.58" y1="176.83" x2="227.93" y2="185.4"/>
    <line class="cls-1" x1="266.87" y1="189.32" x2="253.17" y2="177.85"/>
    <line class="cls-1" x1="338.62" y1="164.09" x2="263.44" y2="186.45"/>
    <line class="cls-1" x1="309.24" y1="128.09" x2="272.99" y2="142.05"/>
    <line class="cls-1" x1="272.99" y1="120.5" x2="252.17" y2="142.05"/>
    <polyline class="cls-1" points="242.26 120.5 241.15 142.05 234.05 119.27"/>
    <line class="cls-1" x1="242.26" y1="174.13" x2="256.58" y2="174.13"/>
    <line class="cls-1" x1="172.83" y1="130.66" x2="189.73" y2="142.05"/>
    <line class="cls-1" x1="172.83" y1="155.03" x2="189.73" y2="158.46"/>
    <line class="cls-1" x1="44.01" y1="100.17" x2="57.72" y2="107.76"/>
    <line class="cls-1" x1="101.81" y1="77.64" x2="81.97" y2="94.78"/>
    <polyline class="cls-1" points="90.69 100.17 103.03 77.64 116.26 115.85 120.66 137.89"/>
    <line class="cls-1" x1="145.64" y1="130.66" x2="116.26" y2="115.85"/>
    <line class="cls-1" x1="145.64" y1="105.32" x2="105.68" y2="77.64"/>
    <polyline class="cls-1" points="429.97 166.78 436.09 162.38 457.4 138.87 470.13 137.64 470.13 162.87 434.87 176.83"/>
    <polyline class="cls-1" points="498.45 118.67 518.28 138.02 544.98 155.41"/>
    <polyline class="cls-1" points="498.65 168.35 520.24 139.6 538.95 122.21"/>
    <polyline class="cls-1" points="499.28 139.85 520.24 139.6 552.42 144.87"/>
    <polyline class="cls-1" points="513.73 158.95 517.4 142.23 517.4 119.52"/>
    <line class="cls-1" x1="487.28" y1="215.03" x2="489.48" y2="237.81"/>
    <line class="cls-1" x1="523.55" y1="183.59" x2="493.15" y2="237.81"/>
    <path class="cls-1" d="M572.65,208.87l-8.48-9.03c-1.78-1.94-4-4.77-5.88-8.57-1.56-3.14-1.94-9.22-2.45-11.51-20.08,18.69-40.65,40.57-60.73,59.27,12.25-5.73,25.24-12.41,38.73-20.2,10.92-6.31,21.03-12.69,30.33-18.98,3.51-1.88,8.42-4.24,11.93-6.12"/>
    <line class="cls-1" x1="578.62" y1="187.85" x2="555.26" y2="180.84"/>
    <line class="cls-1" x1="492.42" y1="245.35" x2="562.46" y2="247.36"/>
    <line class="cls-1" x1="259.52" y1="60.74" x2="268.58" y2="93.56"/>
    <polyline class="cls-1" points="188.5 93.56 258.3 60.74 242.26 93.56"/>
    <polyline class="cls-1" points="275.19 56.58 264.05 57.07 258.3 59.27 203.19 51.44 203.19 13.48 257.07 57.32"/>
    <line class="cls-1" x1="258.3" y1="32.58" x2="203.19" y2="13.48"/>
    <polyline class="cls-1" points="296.01 27.68 316.83 5.15 315.6 27.68"/>
    <polyline class="cls-1" points="389.32 76.17 387.11 29.89 316.83 5.15"/>
    <line class="cls-1" x1="462.79" y1="92.83" x2="473.32" y2="101.15"/>
    <line class="cls-1" x1="470.13" y1="81.56" x2="476.26" y2="96.99"/>
    <polyline class="cls-1" points="473.19 78.38 509.56 90.62 513.05 93.76 484.83 63.93"/>
    <line class="cls-1" x1="488.75" y1="60.01" x2="515.56" y2="58.54"/>
    <line class="cls-1" x1="500.99" y1="36.99" x2="515.56" y2="55.11"/>
    <polyline class="cls-1" points="519.11 57.07 551.19 52.17 552.42 91.6 519.48 58.54"/>
    <polyline class="cls-1" points="486.54 61.97 552.42 93.81 581.81 55.11 585.48 105.81"/>
    <polyline class="cls-1" points="484.09 27.44 482.62 12.99 527.68 9.32 517.4 55.11"/>
    <polyline class="cls-1" points="551.19 52.17 527.68 9.32 581.81 55.11 552.42 52.17"/>
    <polygon class="cls-1" points="587.68 22.3 581.81 55.11 617.56 25.72 587.68 22.3"/>
    <polyline class="cls-1" points="654.3 44.09 616.34 70.54 602.38 107.76 614.13 109.23"/>
    <polyline class="cls-1" points="680.01 71.89 660.91 92.83 651.85 101.15"/>
    <line class="cls-1" x1="617.56" y1="71.27" x2="660.91" y2="92.83"/>
    <polyline class="cls-1" points="605.81 128.34 594.54 128.34 595.77 148.81"/>
    <line class="cls-1" x1="600.17" y1="139.6" x2="594.54" y2="128.34"/>
    <polyline class="cls-1" points="621.24 156.25 631.52 163.6 630.3 169.23"/>
    <polyline class="cls-1" points="576.91 152.58 587.93 169.23 571.28 166.05"/>
    <polyline class="cls-1" points="624.42 190.3 623.19 201.81 596.01 209.89"/>
    <polyline class="cls-1" points="640.58 193.72 641.81 232.66 605.81 240.74 579.6 215.03"/>
    <line class="cls-1" x1="623.19" y1="201.81" x2="641.81" y2="232.66"/>
    <line class="cls-1" x1="684.17" y1="156.25" x2="702.54" y2="148.81"/>
    <line class="cls-1" x1="708.42" y1="44.09" x2="710.87" y2="95.03"/>
  </g>
  <g id="Bolinhas">
    <circle cx="42.96" cy="97.18" r="5.75"/>
    <circle cx="72.35" cy="62.33" r="4.07"/>
    <circle cx="104.19" cy="75.31" r="4.07"/>
    <circle cx="115.62" cy="114.25" r="3.69"/>
    <circle cx="153.71" cy="61.31" r="4.07"/>
    <ellipse cx="202.71" cy="12.66" rx="5" ry="5.15"/>
    <ellipse cx="316.13" cy="5.15" rx="5" ry="5.15"/>
    <ellipse cx="387.71" cy="29.56" rx="3.9" ry="3.75"/>
    <ellipse cx="482.58" cy="12.97" rx="5.13" ry="4.93"/>
    <ellipse cx="527.75" cy="9.39" rx="4.5" ry="4.32"/>
    <ellipse cx="516.78" cy="56.29" rx="4.5" ry="4.32"/>
    <ellipse cx="551.15" cy="52.17" rx="2.76" ry="2.66"/>
    <ellipse cx="587.71" cy="21.81" rx="1.95" ry="1.87"/>
    <ellipse cx="552.42" cy="92.21" rx="3.23" ry="3.11"/>
    <ellipse cx="584.88" cy="105.27" rx="3.23" ry="3.11"/>
    <ellipse cx="602.67" cy="106.81" rx="3.23" ry="3.11"/>
    <ellipse cx="594.54" cy="128.34" rx="3.23" ry="3.11"/>
    <ellipse cx="616.67" cy="69.84" rx="3.23" ry="3.11"/>
    <ellipse cx="654.23" cy="43.33" rx="3.23" ry="3.11"/>
    <ellipse cx="680.21" cy="70.31" rx="2.43" ry="2.33"/>
    <ellipse cx="661.66" cy="92.83" rx="3.06" ry="2.94"/>
    <ellipse cx="710.87" cy="94.61" rx="2.05" ry="1.97"/>
    <ellipse cx="708.42" cy="42.31" rx="2.05" ry="1.97"/>
    <ellipse cx="756.71" cy="98.81" rx="3.03" ry="2.91"/>
    <ellipse cx="630.71" cy="162.81" rx="1.61" ry="1.69"/>
    <ellipse cx="684.21" cy="156.31" rx="1.61" ry="1.69"/>
    <ellipse cx="623.19" cy="201.14" rx="1.61" ry="1.69"/>
    <ellipse cx="641.71" cy="231.31" rx="2.43" ry="2.55"/>
    <ellipse cx="607.21" cy="239.81" rx="3.2" ry="3.37"/>
    <ellipse cx="716.11" cy="223.26" rx="6.24" ry="6.55"/>
    <ellipse cx="674.21" cy="251.32" rx="3.64" ry="3.4"/>
    <ellipse cx="726.21" cy="229.81" rx="2.61" ry="2.85"/>
    <ellipse cx="581.65" cy="54.85" rx="3.23" ry="3.11"/>
    <ellipse cx="617.56" cy="25.91" rx="3.11" ry="3.23" transform="translate(314.52 564.63) rotate(-63.04)"/>
    <ellipse cx="486.54" cy="60.31" rx="4.5" ry="4.32"/>
    <ellipse cx="459.15" cy="135.7" rx="4.5" ry="4.32"/>
    <ellipse cx="519.11" cy="139.6" rx="4.5" ry="4.32"/>
    <ellipse cx="491.21" cy="240.99" rx="6.15" ry="5.91"/>
    <ellipse cx="562.71" cy="247.36" rx="3.64" ry="3.5"/>
    <ellipse cx="259.17" cy="58.56" rx="5" ry="5.15"/>
    <circle cx="188.5" cy="93.52" r="3.17"/>
    <circle cx="202.71" cy="51.31" r="2.22"/>
    <circle cx="45.28" cy="213.81" r="4.63"/>
    <circle cx="55.29" cy="261.24" r="4.63"/>
    <circle cx="96.91" cy="224.29" r="2.8"/>
    <circle cx="125.22" cy="217.74" r="2.8"/>
    <circle cx="151.71" cy="245.77" r="4.19"/>
    <circle cx="194.61" cy="240.74" r="2.3"/>
    <circle cx="238.95" cy="230.81" r="2.3"/>
    <circle cx="227.7" cy="184.27" r="2.3"/>
    <circle cx="242.26" cy="174.13" r="2.3"/>
    <circle cx="258.33" cy="173.78" r="4.27"/>
    <circle cx="293.71" cy="123.81" r="3.5"/>
    <circle cx="263.21" cy="236.31" r="2.3"/>
    <circle cx="194.61" cy="270.9" r="3.39"/>
    <circle cx="91.44" cy="184.28" r="2.8"/>
    <circle cx="4.39" cy="193.06" r="4.39"/>
  </g>
  <g id="X">
    <line class="cls-3" x1="381.71" y1="94.75" x2="260.46" y2="27.31"/>
    <path class="cls-3" d="M328.09,29.19c-2.35,4.75-3.88,13.62-6.38,24.34-1.8,7.74.05,14.56,1.84,19.57,1.31,3.67,2.42,7.41,3.4,11.18,5.59,21.51,11.17,43.02,16.76,64.54"/>
    <polyline class="cls-3" points="331.67 101.15 369.46 153.81 330.71 213.94"/>
    <polyline class="cls-3" points="343.71 159.87 322.46 243.81 330.71 278.81"/>
    <line class="cls-3" x1="258.68" y1="280.44" x2="379.21" y2="213"/>
    <polyline class="cls-2" points="295.58 82.85 308.21 125.81 338.71 162.81"/>
    <path class="cls-2" d="M389.21,77.56l-7.12-8.25c-7.18-10.02-14.36-20.03-21.55-30.05-3.38-4.72-8.16-8.31-13.71-10.03-.05-.02-.11-.03-.16-.05-5.91-1.79-10.95-1.31-13.59-.88"/>
    <path class="cls-2" d="M391.21,230.81c-.84,1.16-2.3,3.39-3.12,5.04-1.2,2.4-2.37,5.54-2.82,7.37"/>
    <g>
      <polygon class="cls-3" points="376.95 88.07 331.71 27.82 257.38 25.91 347.61 153.86 257.38 282.32 330.71 278.82 378.28 215.25 383.71 207.99 386.51 211.6 402.52 232.19 437.1 276.68 437.19 276.81 438.48 278.46 508.71 279.57 439.67 184.29 420.9 158.39 417.62 153.86 423.57 145.48 432.75 132.56 506.24 29.09 508.21 26.32 436.21 26.82 423.92 43.41 399.6 76.22 388.27 91.5 383.93 97.36 376.95 88.07"/>
      <polyline class="cls-3" points="385.71 211.15 386.51 211.6 444.88 244.06 508.71 279.57"/>
      <path class="cls-3" d="M438.21,275.82c.69-3.25,1.8-8.31,3.3-14.5,2.17-8.95,2.87-10.84,3.2-14,.11-.99.17-2.08.17-3.26-.01-3.66-.67-8.26-2.87-13.75-1.81-4.55-3.31-9.22-4.67-13.93-.48-1.65-.95-3.29-1.43-4.94-5.08-17.62-10.17-35.25-15.26-52.87"/>
      <polyline class="cls-3" points="388.71 91.82 444.05 61.64 505.15 28.32"/>
      <polyline class="cls-3" points="436.21 26.82 444.21 61.03 444.05 61.64 435.41 95.34 422.71 144.87"/>
      <polyline class="cls-3" points="435.33 95.32 396.71 153.82 435.33 211.61"/>
      <path class="cls-2" d="M378.71,87.82c.84-1.2,1.99-2.67,3.51-4.2,1.19-1.19,2.59-2.43,4.24-3.62,4.36-3.12,8.57-4.52,11.25-5.18"/>
      <polyline class="cls-2" points="429.48 34.18 420.46 43.44 381.88 83.02 381.74 83.16 376.95 88.07 376.71 88.32"/>
      <path class="cls-2" d="M423.8,43.32c-.42-.01-1.61-.02-3.34.12-6.86.5-22.24,3.17-31.75,16.63-6.41,9.08-7,18.63-7,22.78"/>
      <line class="cls-2" x1="432.76" y1="132.57" x2="440.64" y2="183.59"/>
      <polyline class="cls-2" points="435.85 277.85 424.28 270.26 393.7 233.25 379.71 216.32 385.71 245.36 385.58 245.5 348.21 284.82 318.95 292.42"/>
      <path class="cls-2" d="M386.25,246.14l8.06,9.05c3.77,3.18,9.05,6.96,15.9,10.17,5.22,2.45,10.05,3.95,14.07,4.9"/>
      <line class="cls-2" x1="394.21" y1="232.82" x2="401.71" y2="232.82"/>
    </g>
    <circle cx="318.59" cy="293.17" r="3.88"/>
    <path class="cls-4" d="M271.62,259.23c-.78-1.93-.59-11.42,1.09-21.92,1.1-6.85,7.28-9.99,9.46-11.5,6.66-3.41,10.87-7.27,13.54-10.29,2.97-3.36,5.01-6.78,9.86-10.09,2.76-1.88,5.34-2.98,7.14-3.63"/>
    <line class="cls-4" x1="283.94" y1="244.5" x2="295.71" y2="215.52"/>
  </g>
  <g id="Texto">
    <path class="cls-4" d="M58.22,202.54v-92.59c0-5.24,2.22-10.32,6.31-13.59.25-.2.52-.4.79-.6,2.82-2.01,5.83-2.88,8.59-3.15,5.36-.52,10.6,1.79,14.02,5.95,19.7,23.96,40.42,49.43,59.98,73.18l-1.27-65.43c-.06-2.97.69-5.94,2.37-8.39,1.88-2.74,4.63-4.72,7.76-5.41,3.01-.67,6.18-.11,8.94,1.42,4.49,2.48,7.12,7.36,7.12,12.49v92.11c0,4.69-1.65,9.29-4.87,12.69-1.71,1.81-3.95,3.43-6.83,4.29-8.13,2.43-15.49-2.71-22.21-11.71-18.24-22.91-36.47-45.83-54.71-68.74v67.71c-.15,6.85-5.69,12.47-12.53,12.73-5.98.23-11.28-3.69-12.97-9.24-.37-1.21-.5-2.48-.5-3.74Z"/>
    <path class="cls-4" d="M191.48,104.15c-.19,1.23.15,2.48.15,3.72v95.65c-.01,1.46.19,4.37,2.08,7.1,2.59,3.75,7.37,5.72,12.47,5.3.69-.06,1.37-.12,2.06-.12,22.68-.09,45.36-.18,68.03-.27,5.34-.02,10.42-2.8,12.95-7.5,1.74-3.23,2.14-6.87.98-9.93-1.41-3.73-5.1-6.5-9.55-7.46-1.05-.23-2.13-.3-3.21-.32l-60.54-1.01v-24.12s53.97,1.59,53.97,1.59c3.19,0,6.34-1.06,8.69-3.22,2.66-2.45,4.24-5.98,4.07-9.71-.16-3.5-1.82-6.69-4.41-8.9-2.28-1.95-5.25-2.9-8.26-2.91-17.67-.08-35.34-.15-53.02-.23v-21l57.94-.3c3.12-.02,6.23-.89,8.74-2.74,4.45-3.28,6.73-8.79,5.57-13.8-1.34-5.78-7.1-10.26-13.92-10.23h-70.38c-.99,0-1.97-.31-2.96-.2-4.38.51-6.24,1.07-8.46,3.69-2.2,2.6-2.65,4.54-3.02,6.91Z"/>
    <path class="cls-2" d="M471.6,203.81v-97.01c0-1.79.31-3.58,1.03-5.22.67-1.53,1.78-3.22,3.62-4.58,2.85-2.11,5.87-2.25,6.96-2.24,16.48-.05,32.96-.1,49.44-.15,15.33-.05,29.95,7.28,38.43,20.05,3.64,5.48,6.12,11.77,7.11,18.52,2.41,16.51-4.57,32.88-17.52,42.88-4.99,3.85-11.11,5.97-17.41,6.25-7.83.36-15.66.71-23.48,1.07-6.26.28-11.98-4.06-12.9-10.26-.17-1.15-.18-2.33-.01-3.51.29-2,1.07-3.87,2.22-5.48,2.4-3.34,6.4-5.17,10.52-5.17h13.04c9.9,0,18.57-7.21,19.75-17.04.18-1.48.19-3,.02-4.52-.18-1.59-.55-3.14-1.1-4.61-2.86-7.72-10.48-12.65-18.72-12.67-11.59-.04-23.18-.07-34.76-.11v83.8c-1.11,6.61-6.95,11.41-13.5,11.22-6.28-.18-11.68-4.89-12.73-11.22Z"/>
    <path class="cls-2" d="M573.97,199.56l43.59-95.75c2.85-6.86,9.49-11.41,16.9-11.6,7.35-.18,14.17,3.97,17.39,10.6,14.78,31.36,29.56,62.72,44.34,94.08.39.82.73,1.67.95,2.56,1.42,5.91-1.43,12.13-6.84,14.73-3.31,1.59-7.11,1.59-10.42.22-2.91-1.21-5.19-3.55-6.59-6.37-2.45-4.93-4.91-9.86-7.36-14.79l-33.2.41c-7.63.09-14.02-6.32-13.29-13.91.06-.65.17-1.29.33-1.92.07-.29.16-.57.24-.84,1.54-4.69,6.09-7.73,11.03-7.76l23.67-.14-18.5-43.75-40.2,84.58c-3.25,5.92-10.65,8.13-16.41,5.14-5.44-2.82-7.97-9.55-5.64-15.47Z"/>
    <path class="cls-2" d="M679.86,113.66l37.58,56.73c2.33,3.52,3.69,7.61,3.93,11.83l1.35,23.76c1.29,6.08,6.86,10.27,12.87,9.86,5.66-.39,10.41-4.78,11.29-10.55.12-6.18.24-12.36.36-18.54.12-6.21,1.91-12.27,5.18-17.56l37.06-55.68c3.56-5.35,3.13-12.56-1.36-17.15-.51-.53-1.04-.98-1.57-1.33-4.86-3.25-14.32-2.22-18.18,4.53-11.67,16.95-21.98,34.66-33.64,51.61-10.85-16.78-21.7-33.55-32.54-50.33-3.8-6.99-12.42-9.32-18.48-5.81-2.05,1.18-3.69,2.96-4.78,5.08-2.23,4.3-1.72,9.52.95,13.55Z"/>
  </g>
</svg>