<?xml version="1.0" encoding="UTF-8"?>
<svg id="X" xmlns="http://www.w3.org/2000/svg" viewBox="0 0 280.3 291.71">
  <defs>
    <style>
      .cls-1, .cls-2 {
        stroke-linecap: round;
        stroke-linejoin: round;
      }

      .cls-1, .cls-2, .cls-3 {
        fill: none;
        stroke: #000;
      }

      .cls-1, .cls-3 {
        stroke-width: 3px;
      }

      .cls-2 {
        stroke-width: 6px;
      }

      .cls-3 {
        stroke-miterlimit: 10;
      }
    </style>
  </defs>
  <line class="cls-2" x1="138.69" y1="77.19" x2="6.36" y2="4.51"/>
  <path class="cls-2" d="M80.17,6.53c-2.57,5.12-4.23,14.68-6.96,26.23-1.97,8.34.06,15.69,2.01,21.09,1.43,3.96,2.64,7.99,3.71,12.05,6.1,23.18,12.19,46.37,18.29,69.55"/>
  <polyline class="cls-2" points="84.08 84.09 125.32 140.84 83.03 205.63"/>
  <polyline class="cls-2" points="97.22 147.37 74.03 237.82 83.03 275.55"/>
  <line class="cls-2" x1="4.42" y1="277.3" x2="135.96" y2="204.63"/>
  <polyline class="cls-1" points="44.69 64.36 58.47 110.66 91.76 150.54"/>
  <path class="cls-1" d="M146.88,58.66l-7.77-8.89c-7.84-10.79-15.68-21.59-23.52-32.38-3.69-5.09-8.91-8.96-14.96-10.81-.06-.02-.12-.04-.18-.05-6.45-1.93-11.95-1.41-14.83-.94"/>
  <path class="cls-1" d="M149.06,223.82c-.91,1.25-2.51,3.65-3.41,5.43-1.31,2.59-2.59,5.97-3.08,7.95"/>
  <g>
    <polygon class="cls-2" points="133.5 69.99 84.12 5.06 3 3 101.47 140.89 3 279.33 83.03 275.55 134.95 207.05 140.87 199.22 143.93 203.11 161.4 225.3 199.14 273.25 199.24 273.39 200.65 275.17 277.3 276.36 201.95 173.68 181.46 145.77 177.88 140.89 184.38 131.86 194.4 117.93 274.6 6.42 276.75 3.44 198.17 3.98 184.76 21.86 158.22 57.21 145.85 73.68 141.11 80 133.5 69.99"/>
    <polyline class="cls-2" points="143.06 202.63 143.93 203.11 207.63 238.09 277.3 276.36"/>
    <path class="cls-2" d="M200.36,272.32c.75-3.5,1.96-8.96,3.6-15.63,2.37-9.65,3.13-11.68,3.49-15.09.12-1.07.19-2.24.19-3.51-.01-3.94-.73-8.9-3.13-14.82-1.98-4.9-3.61-9.94-5.1-15.01-.52-1.78-1.04-3.55-1.56-5.32-5.54-18.99-11.1-37.99-16.65-56.98"/>
    <polyline class="cls-2" points="146.33 74.03 206.73 41.5 273.41 5.59"/>
    <polyline class="cls-2" points="198.17 3.98 206.9 40.84 206.73 41.5 197.3 77.82 183.44 131.2"/>
    <polyline class="cls-2" points="197.21 77.8 155.06 140.84 197.21 203.12"/>
    <path class="cls-1" d="M135.42,69.72c.92-1.29,2.17-2.88,3.83-4.53,1.3-1.28,2.83-2.62,4.63-3.9,4.76-3.36,9.35-4.87,12.28-5.58"/>
    <polyline class="cls-1" points="190.83 11.91 180.98 21.89 138.88 64.54 138.72 64.69 133.5 69.99 133.23 70.25"/>
    <path class="cls-1" d="M184.63,21.76c-.46,0-1.76-.02-3.65.13-7.49.54-24.27,3.42-34.65,17.92-7,9.79-7.64,20.08-7.64,24.55"/>
    <line class="cls-1" x1="194.41" y1="117.94" x2="203.01" y2="172.93"/>
    <polyline class="cls-1" points="197.78 274.51 185.15 266.33 151.78 226.44 136.51 208.2 143.06 239.49 142.91 239.65 102.13 282.02 70.19 290.21"/>
    <path class="cls-1" d="M143.65,240.34l8.8,9.75c4.11,3.43,9.88,7.5,17.35,10.96,5.7,2.64,10.97,4.26,15.36,5.28"/>
    <line class="cls-1" x1="152.33" y1="225.98" x2="160.52" y2="225.98"/>
  </g>
  <ellipse cx="77.05" cy="279.27" rx="3.83" ry="3.86"/>
  <path class="cls-3" d="M18.54,254.45c-.85-2.08-.65-12.31,1.19-23.63,1.2-7.38,7.95-10.77,10.33-12.39,7.27-3.67,11.86-7.83,14.78-11.09,3.24-3.62,5.46-7.31,10.76-10.87,3.01-2.03,5.83-3.21,7.79-3.91"/>
  <line class="cls-3" x1="31.98" y1="238.58" x2="44.83" y2="207.34"/>
</svg>